<svg id="logotype" xmlns="http://www.w3.org/2000/svg" viewBox="0 0 595.58 164.76"><title>keepup-logo</title><g id="text"><path id="k" d="M2.2,153V25.68H14.85V153H2.2Zm68.65,0-53-63.66,53-63.66H86.54l-54,63.66,54,63.66H70.85Z" transform="translate(-1.7 -23.4)" style="fill:none;stroke:#f19f4e;stroke-miterlimit:10"/><path id="e1" d="M167.4,136.7a26.85,26.85,0,0,1-6.33,8.52,30,30,0,0,1-9.41,5.73A31.55,31.55,0,0,1,140.18,153h-8A31.54,31.54,0,0,1,120.67,151a30,30,0,0,1-9.41-5.73,26.82,26.82,0,0,1-6.33-8.52,24,24,0,0,1-2.3-10.39v-41a24,24,0,0,1,2.3-10.39,26.85,26.85,0,0,1,6.33-8.52,30,30,0,0,1,9.41-5.73,31.54,31.54,0,0,1,11.47-2.09h8a31.55,31.55,0,0,1,11.47,2.09,30,30,0,0,1,9.41,5.73,26.88,26.88,0,0,1,6.33,8.52,24.05,24.05,0,0,1,2.3,10.39v21.4h-55v20.24a14.16,14.16,0,0,0,1.37,6.17,15.92,15.92,0,0,0,3.73,5,17.78,17.78,0,0,0,5.54,3.37,18.55,18.55,0,0,0,6.82,1.24h8A18.57,18.57,0,0,0,147,141.5a17.79,17.79,0,0,0,5.54-3.37,15.94,15.94,0,0,0,3.73-5,14.18,14.18,0,0,0,1.37-6.17v-6l12.06,1.78v3.64A24,24,0,0,1,167.4,136.7Zm-9.76-52a14.2,14.2,0,0,0-1.37-6.17,16,16,0,0,0-3.73-5A17.82,17.82,0,0,0,147,70.11a18.61,18.61,0,0,0-6.82-1.24h-8a18.59,18.59,0,0,0-6.82,1.24,17.8,17.8,0,0,0-5.54,3.37,15.94,15.94,0,0,0-3.73,5,14.17,14.17,0,0,0-1.37,6.17v13.5h43V84.67Z" transform="translate(-1.7 -23.4)" style="fill:none;stroke:#f19f4e;stroke-miterlimit:10"/><path id="e2" d="M258.6,136.7a26.85,26.85,0,0,1-6.33,8.52,30,30,0,0,1-9.41,5.73A31.55,31.55,0,0,1,231.38,153h-8A31.54,31.54,0,0,1,211.87,151a30,30,0,0,1-9.41-5.73,26.81,26.81,0,0,1-6.33-8.52,24,24,0,0,1-2.3-10.39v-41a24,24,0,0,1,2.3-10.39,26.84,26.84,0,0,1,6.33-8.52,30,30,0,0,1,9.41-5.73,31.54,31.54,0,0,1,11.47-2.09h8a31.55,31.55,0,0,1,11.47,2.09,30,30,0,0,1,9.41,5.73,26.88,26.88,0,0,1,6.33,8.52,24.05,24.05,0,0,1,2.3,10.39v21.4h-55v20.24a14.16,14.16,0,0,0,1.37,6.17,15.92,15.92,0,0,0,3.73,5,17.78,17.78,0,0,0,5.54,3.37,18.55,18.55,0,0,0,6.82,1.24h8a18.57,18.57,0,0,0,6.82-1.24,17.79,17.79,0,0,0,5.54-3.37,15.94,15.94,0,0,0,3.73-5,14.18,14.18,0,0,0,1.37-6.17v-6l12.06,1.78v3.64A24,24,0,0,1,258.6,136.7Zm-9.76-52a14.2,14.2,0,0,0-1.37-6.17,16,16,0,0,0-3.73-5,17.82,17.82,0,0,0-5.54-3.37,18.61,18.61,0,0,0-6.82-1.24h-8a18.6,18.6,0,0,0-6.82,1.24A17.81,17.81,0,0,0,211,73.49a15.94,15.94,0,0,0-3.73,5,14.17,14.17,0,0,0-1.37,6.17v13.5h43V84.67Z" transform="translate(-1.7 -23.4)" style="fill:none;stroke:#f19f4e;stroke-miterlimit:10"/><path id="p1" d="M349.8,136.7a26.87,26.87,0,0,1-6.33,8.52,30,30,0,0,1-9.41,5.73A31.56,31.56,0,0,1,322.59,153h-3A31.47,31.47,0,0,1,307,150.55a28.86,28.86,0,0,1-9.9-6.93v44H285V69.35h4l6.57,0.23a29.54,29.54,0,0,1,10.35-8,31.11,31.11,0,0,1,13.58-3h3a31.55,31.55,0,0,1,11.47,2.09,30,30,0,0,1,9.41,5.73,26.89,26.89,0,0,1,6.33,8.52,24.06,24.06,0,0,1,2.3,10.39v41A24.05,24.05,0,0,1,349.8,136.7Zm-9.76-52a14.19,14.19,0,0,0-1.37-6.17,16,16,0,0,0-3.73-5,17.82,17.82,0,0,0-5.54-3.37,18.61,18.61,0,0,0-6.82-1.24h-8a18.6,18.6,0,0,0-6.82,1.24,17.81,17.81,0,0,0-5.54,3.37,15.94,15.94,0,0,0-3.73,5,14.17,14.17,0,0,0-1.37,6.17v42.26a14.16,14.16,0,0,0,1.37,6.17,15.92,15.92,0,0,0,3.73,5,17.78,17.78,0,0,0,5.54,3.37,18.56,18.56,0,0,0,6.82,1.24h8a18.57,18.57,0,0,0,6.82-1.24,17.79,17.79,0,0,0,5.54-3.37,15.92,15.92,0,0,0,3.73-5,14.18,14.18,0,0,0,1.37-6.17V84.67Z" transform="translate(-1.7 -23.4)" style="fill:none;stroke:#f19f4e;stroke-miterlimit:10"/><path id="u" d="M500.82,133.91a31.57,31.57,0,0,1-7.4,9.94,35.22,35.22,0,0,1-11,6.7A36.75,36.75,0,0,1,469,153H459a37.13,37.13,0,0,1-13.48-2.44,35.07,35.07,0,0,1-11-6.7,31.53,31.53,0,0,1-7.4-9.94,28,28,0,0,1-2.7-12.16V23.9H437v97.84a18.15,18.15,0,0,0,1.77,7.95,20.79,20.79,0,0,0,4.85,6.48,23.15,23.15,0,0,0,7.16,4.4,23.8,23.8,0,0,0,8.78,1.6h8.83a23.8,23.8,0,0,0,8.78-1.6,22.57,22.57,0,0,0,7.11-4.4,21.17,21.17,0,0,0,4.8-6.48,18.15,18.15,0,0,0,1.77-7.95V23.9h12.65v97.84A28,28,0,0,1,500.82,133.91Z" transform="translate(-1.7 -23.4)" style="fill:none;stroke:#f19f4e;stroke-miterlimit:10"/><path id="p2" d="M594.48,136.7a26.87,26.87,0,0,1-6.33,8.52,30,30,0,0,1-9.41,5.73A31.56,31.56,0,0,1,567.26,153h-3a31.47,31.47,0,0,1-12.55-2.49,28.86,28.86,0,0,1-9.91-6.93v44H529.7V69.35h4l6.57,0.23a29.54,29.54,0,0,1,10.35-8,31.11,31.11,0,0,1,13.58-3h3a31.55,31.55,0,0,1,11.47,2.09,30,30,0,0,1,9.41,5.73,26.89,26.89,0,0,1,6.33,8.52,24.06,24.06,0,0,1,2.3,10.39v41A24.06,24.06,0,0,1,594.48,136.7Zm-9.76-52a14.19,14.19,0,0,0-1.37-6.17,16,16,0,0,0-3.73-5,17.82,17.82,0,0,0-5.54-3.37,18.61,18.61,0,0,0-6.82-1.24h-8a18.6,18.6,0,0,0-6.82,1.24,17.81,17.81,0,0,0-5.54,3.37,15.93,15.93,0,0,0-3.73,5,14.18,14.18,0,0,0-1.37,6.17v42.26a14.16,14.16,0,0,0,1.37,6.17,15.91,15.91,0,0,0,3.73,5,17.78,17.78,0,0,0,5.54,3.37,18.56,18.56,0,0,0,6.82,1.24h8a18.57,18.57,0,0,0,6.82-1.24,17.79,17.79,0,0,0,5.54-3.37,15.92,15.92,0,0,0,3.73-5,14.18,14.18,0,0,0,1.37-6.17V84.67Z" transform="translate(-1.7 -23.4)" style="fill:none;stroke:#f19f4e;stroke-miterlimit:10"/></g><g id="marca"><rect x="422.68" y="148.26" width="44.58" height="8" style="fill:none;stroke:#f19f4e;stroke-miterlimit:10"/><rect x="467.25" y="156.26" width="34.56" height="8" style="fill:none;stroke:#f19f4e;stroke-miterlimit:10"/><rect x="350.4" y="138.78" width="72.28" height="8" style="fill:none;stroke:#f19f4e;stroke-miterlimit:10"/></g></svg>